#define iconify_width 9
#define iconify_height 9
static unsigned char iconify_bits[] = {
   0x00, 0x00, 0x00, 0x00, 0x00, 0x00, 0x44, 0x00, 0x6c, 0x00, 0x38, 0x00,
   0x10, 0x00, 0x00, 0x00, 0x00, 0x00 };
