#define shade_toggled_width 11
#define shade_toggled_height 11
static unsigned char shade_toggled_bits[] = {
   0x01, 0x04, 0x00, 0x00, 0x00, 0x00, 0x00, 0x00, 0x88, 0x00, 0xd8, 0x00,
   0x70, 0x00, 0x20, 0x00, 0x00, 0x00, 0x00, 0x00, 0x01, 0x04 };
